<?xml version="1.0" encoding="UTF-8"?>
<svg xmlns="http://www.w3.org/2000/svg" width="800" height="600" viewBox="0 0 800 600" role="img" aria-label="Threshold, one bevel: plan and section drawing" font-family="Helvetica Neue, Helvetica, Arial, sans-serif"><rect width="800" height="600" fill="#ffffff"/><defs><marker id="cp-threshold-1-bevel-a" viewBox="0 0 10 10" refX="10" refY="5" markerWidth="7" markerHeight="7" orient="auto-start-reverse"><path d="M0,1.5L10,5L0,8.5" fill="none" stroke="#111111" stroke-width="1.7"></path></marker><pattern id="cp-threshold-1-bevel-h" width="13" height="13" patternUnits="userSpaceOnUse" patternTransform="rotate(45)"><line x1="0" y1="0" x2="0" y2="13" stroke="#111111" stroke-width="1.5"></line></pattern></defs><text x="36" y="50" font-size="21" letter-spacing="3" fill="#111111" opacity="0.75">PLAN</text><rect x="80" y="156" width="600" height="50" fill="#fff" stroke="#111111" stroke-width="3"></rect><line x1="80" y1="198" x2="680" y2="198" stroke="#111111" stroke-width="1.8"></line><line x1="80" y1="212" x2="80" y2="248" stroke="#111111" stroke-width="1.4"></line><line x1="680" y1="212" x2="680" y2="248" stroke="#111111" stroke-width="1.4"></line><g><line x1="80" y1="240" x2="680" y2="240" stroke="#111111" stroke-width="1.8" marker-start="url(#cp-threshold-1-bevel-a)" marker-end="url(#cp-threshold-1-bevel-a)"></line><text x="380" y="274" text-anchor="middle" font-size="30" font-style="italic" fill="#111111">L</text></g><line x1="686" y1="156" x2="724" y2="156" stroke="#111111" stroke-width="1.4"></line><line x1="686" y1="206" x2="724" y2="206" stroke="#111111" stroke-width="1.4"></line><g><line x1="716" y1="156" x2="716" y2="206" stroke="#111111" stroke-width="1.8" marker-start="url(#cp-threshold-1-bevel-a)" marker-end="url(#cp-threshold-1-bevel-a)"></line><text x="742" y="191" text-anchor="middle" font-size="30" font-style="italic" fill="#111111">W</text></g><text x="36" y="372" font-size="21" letter-spacing="3" fill="#111111" opacity="0.75">SECTION</text><path d="M140.0,505.0L700.0,505.0L700.0,472.3L662.7,435.0L140.0,435.0Z" fill="url(#cp-threshold-1-bevel-h)" stroke="#111111" stroke-width="3" stroke-linejoin="round"></path><line x1="134" y1="505" x2="96" y2="505" stroke="#111111" stroke-width="1.4"></line><line x1="134" y1="435" x2="96" y2="435" stroke="#111111" stroke-width="1.4"></line><g><line x1="104" y1="505" x2="104" y2="435" stroke="#111111" stroke-width="1.8" marker-start="url(#cp-threshold-1-bevel-a)" marker-end="url(#cp-threshold-1-bevel-a)"></line><text x="78" y="480" text-anchor="middle" font-size="30" font-style="italic" fill="#111111">T</text></g></svg>
